<?xml version="1.0" encoding="UTF-8" standalone="no"?>
<!DOCTYPE svg PUBLIC "-//W3C//DTD SVG 1.1//EN" "http://www.w3.org/Graphics/SVG/1.1/DTD/svg11.dtd">
<svg width="100%" height="100%" viewBox="0 0 4316 1724" version="1.1" xmlns="http://www.w3.org/2000/svg" xmlns:xlink="http://www.w3.org/1999/xlink" xml:space="preserve" xmlns:serif="http://www.serif.com/" style="fill-rule:evenodd;clip-rule:evenodd;stroke-linejoin:round;stroke-miterlimit:2;">
    <g transform="matrix(1,0,0,1,-795.08,-2090.86)">
        <g transform="matrix(1,0,0,1,695.912,2121.82)">
            <g transform="matrix(8.11912,0,0,8.11912,-705.987,-929.652)">
                <path d="M154.153,155.707C173.127,154.24 190.089,158.234 204.205,170.88C217.559,182.841 225.393,197.566 225.358,215.946C225.294,249.584 225.322,283.223 225.284,316.861C225.282,318.661 225.64,320.532 224.292,323C219.119,320.713 214.052,317.759 208.588,316.222C200.197,313.862 197.761,308.996 198.474,300.572C199.294,290.89 198.664,281.085 198.664,270.466C191.171,274.663 184.456,278.166 176.977,279.932C139.604,288.758 103.242,262.077 99.457,224.041C96.146,190.77 121.713,160.663 150.79,156.372C151.774,156.227 152.738,155.948 154.153,155.707M151.808,252.763C156.269,254.257 160.811,255.053 165.535,254.469C183.387,252.262 201.608,236.222 197.796,212.512C195.689,199.406 185.186,187.321 171.455,183.509C158.547,179.926 143.15,184.856 135.022,195.176C118.669,215.939 126.107,242.518 151.808,252.763Z" style="fill-rule:nonzero;"/>
            </g>
            <g transform="matrix(8.11912,0,0,8.11912,-705.987,-929.652)">
                <path d="M340.911,261.893C328.063,274.676 312.879,281.961 295.134,281.904C275.127,281.839 258.405,273.797 245.597,258.037C224,231.466 227.486,192.554 254.484,169.83C276.254,151.505 310.329,150.266 334.338,169.339C361.336,190.786 367.193,232.612 340.911,261.893M272.237,192.727C262.826,202.021 258.416,213.002 261.464,226.223C265.888,245.42 284.737,256.534 304.119,251.57C321.995,246.991 333.099,226.781 327.568,208.573C320.469,185.206 292.289,176.902 272.237,192.727Z" style="fill-rule:nonzero;"/>
            </g>
            <g transform="matrix(8.11912,0,0,8.11912,-705.987,-929.652)">
                <path d="M391.36,206.565C391.303,229.99 391.156,252.972 391.314,275.952C391.346,280.618 390.123,282.627 385.173,282.295C379.702,281.927 374.186,282.119 368.693,282.223C365.455,282.285 363.789,281.263 363.801,277.673C363.874,255.524 363.384,233.366 363.889,211.229C364.992,162.982 415.753,145.471 448.445,161.334C470.008,171.797 480.979,188.691 481.1,212.393C481.211,234.199 480.566,256.009 480.372,277.818C480.343,281.045 479.143,282.301 475.958,282.23C470.298,282.103 464.628,282.019 458.974,282.238C454.778,282.4 453.567,280.627 453.593,276.608C453.733,255.293 453.705,233.976 453.635,212.66C453.587,198.016 446.477,188.408 432.943,184.383C418.812,180.18 402.904,184.917 395.639,195.559C393.461,198.75 391.954,202.259 391.36,206.565Z" style="fill-rule:nonzero;"/>
            </g>
            <g transform="matrix(8.11912,0,0,8.11912,-705.987,-929.652)">
                <path d="M528.233,155.933C544.03,155.679 559.123,157.743 575.117,160.06C572.271,167.709 569.718,174.686 567.065,181.625C566.397,183.371 564.715,183.277 563.204,183.133C554.765,182.326 546.324,181.535 537.895,180.638C532.876,180.103 527.927,180.031 523.111,181.822C519.564,183.142 516.937,185.527 516.677,189.364C516.409,193.323 519.489,195.168 522.677,196.459C533.976,201.035 546.042,203.02 557.621,206.667C565.901,209.276 574.196,211.78 580.762,217.901C590.563,227.037 592.275,242.008 585.257,256.183C578.66,269.507 566.985,275.313 553.258,278.361C538.798,281.573 524.435,279.477 510.083,277.753C505.337,277.182 500.382,277.868 495.252,275.504C498.019,267.771 501.261,260.222 505.137,252.993C506.421,250.598 509.373,251.824 511.624,252.028C521.383,252.911 531.053,254.801 540.903,254.65C544.922,254.589 548.894,254.071 552.618,252.505C556.628,250.818 559.301,247.612 559.385,243.367C559.472,238.946 556.465,236.185 552.346,234.64C542.811,231.064 532.629,229.863 523.018,226.593C518.138,224.932 513.271,223.214 508.471,221.334C486.123,212.582 482.452,195.177 491.268,175.491C496.627,163.524 506.714,158.116 519.311,156.726C522.122,156.416 524.944,156.21 528.233,155.933Z" style="fill-rule:nonzero;"/>
            </g>
            <g transform="matrix(8.11912,0,0,8.11912,-705.987,-929.652)">
                <path d="M629.349,175.001C629.349,208.966 629.253,242.433 629.451,275.897C629.48,280.87 628.186,282.731 623.032,282.412C616.231,281.99 609.383,282.192 602.56,282.334C599.123,282.405 597.819,281.018 597.822,277.622C597.865,238.496 597.863,199.369 597.778,160.242C597.77,156.749 599.118,155.553 602.507,155.621C609.996,155.77 617.492,155.751 624.982,155.628C628.173,155.575 629.479,156.784 629.375,160.017C629.218,164.84 629.343,169.672 629.349,175.001Z" style="fill-rule:nonzero;"/>
            </g>
            <g transform="matrix(8.11912,0,0,8.11912,-705.987,-929.652)">
                <path d="M626.859,117.302C631.669,123.95 631.788,130.725 628.008,137.269C623.972,144.255 617.333,146.643 609.585,145.242C602.791,144.014 598.393,139.684 596.324,133.103C593.915,125.44 597.049,117.486 604.04,113.299C611.598,108.772 619.959,110.15 626.859,117.302Z" style="fill-rule:nonzero;"/>
            </g>
        </g>
    </g>
</svg>
